<?xml version="1.0" encoding="UTF-8" standalone="no"?>
<!DOCTYPE svg PUBLIC "-//W3C//DTD SVG 1.1//EN" "http://www.w3.org/Graphics/SVG/1.1/DTD/svg11.dtd">
<svg xmlns="http://www.w3.org/2000/svg" version="1.1" viewBox="0.00 0.00 500.00 500.00">
<g stroke-width="2.00" fill="none" stroke-linecap="butt">
<path stroke="#1f1f1f" vector-effect="non-scaling-stroke" d="
  M 273.80 130.39
  C 273.06 131.97 272.90 133.53 273.31 135.08"
/>
<path stroke="#343534" vector-effect="non-scaling-stroke" d="
  M 273.47 137.77
  C 272.96 144.64 273.10 151.30 273.87 157.75"
/>
<path stroke="#1f1f1f" vector-effect="non-scaling-stroke" d="
  M 273.98 167.75
  C 272.87 173.37 272.78 179.21 273.70 185.26"
/>
<path stroke="#1f1f1f" vector-effect="non-scaling-stroke" d="
  M 273.34 349.54
  C 272.88 349.42 272.88 349.66 273.35 350.27
  C 273.56 350.54 273.83 350.69 274.17 350.72
  C 275.81 350.86 277.45 350.58 279.10 349.87"
/>
<path stroke="#1f1f1f" vector-effect="non-scaling-stroke" d="
  M 286.70 385.17
  C 280.91 383.79 274.69 383.67 268.04 384.80"
/>
<path stroke="#1f1f1f" vector-effect="non-scaling-stroke" d="
  M 261.55 440.34
  C 260.76 442.55 261.01 444.85 262.29 447.26"
/>
<path stroke="#1f1f1f" vector-effect="non-scaling-stroke" d="
  M 230.93 421.12
  C 231.89 420.49 232.06 419.60 231.44 418.47"
/>
<path stroke="#1f1f1f" vector-effect="non-scaling-stroke" d="
  M 208.40 349.86
  C 209.23 351.13 210.67 351.34 212.73 350.49"
/>
<path stroke="#1f1f1f" vector-effect="non-scaling-stroke" d="
  M 221.53 350.37
  C 222.69 350.48 222.75 349.43 221.72 347.21"
/>
<path stroke="#343534" vector-effect="non-scaling-stroke" d="
  M 221.92 322.36
  C 222.63 321.60 222.77 320.56 222.34 319.23"
/>
<path stroke="#343534" vector-effect="non-scaling-stroke" d="
  M 221.49 143.50
  L 221.30 140.22"
/>
<path stroke="#1f1f1f" vector-effect="non-scaling-stroke" d="
  M 220.83 109.87
  C 221.44 109.20 221.61 108.00 221.36 106.27"
/>
<path stroke="#343534" vector-effect="non-scaling-stroke" d="
  M 248.13 337.19
  C 252.07 340.49 255.62 344.16 258.77 348.19
  C 261.12 351.21 266.59 350.78 270.22 350.72
  C 270.58 350.71 270.75 350.53 270.74 350.16
  C 270.67 348.37 270.76 346.60 271.02 344.86
  C 271.58 341.01 270.98 337.46 271.47 333.66
  C 271.77 331.33 271.92 329.36 271.93 327.77
  C 271.93 323.13 272.67 318.52 272.55 314.07
  C 272.38 307.88 272.43 301.69 272.71 295.50
  C 272.78 293.83 272.48 290.75 271.80 286.26
  C 271.39 283.52 271.40 279.88 271.84 275.33
  C 272.49 268.55 271.82 262.09 272.21 255.37
  C 272.70 246.88 272.27 239.38 272.34 231.30
  C 272.35 230.31 272.20 228.13 271.90 224.74
  C 271.54 220.78 272.73 217.16 272.15 213.36
  C 271.32 207.96 271.22 202.55 271.84 197.12
  C 272.24 193.65 271.82 191.97 271.01 188.76
  C 270.00 184.80 271.49 179.27 271.44 175.40
  C 271.41 173.43 271.39 171.45 271.38 169.47
  C 271.37 163.50 270.81 157.66 271.09 151.66
  C 271.56 141.45 270.81 132.58 271.55 123.10
  C 271.72 121.01 271.47 118.56 270.81 115.75
  C 270.26 113.40 270.18 110.44 270.56 106.87
  C 270.99 102.90 271.18 99.97 271.15 98.08
  C 271.11 95.34 271.05 92.60 270.96 89.87
  C 270.90 87.70 271.02 84.96 271.32 81.66
  C 271.82 76.25 271.22 71.21 271.89 65.62
  C 272.26 62.57 272.27 59.49 271.93 56.38
  C 271.76 54.86 271.20 53.37 270.23 51.90
  C 262.92 40.79 256.30 29.21 250.37 17.18
  C 250.12 16.68 249.44 16.60 249.09 17.04
  C 239.49 29.15 231.27 42.24 224.44 56.32
  C 223.27 58.72 224.28 64.41 223.91 67.46
  C 223.58 70.08 223.44 72.37 223.48 74.32
  C 223.57 79.03 222.85 83.80 222.94 88.24
  C 222.99 90.57 223.00 92.91 222.99 95.24
  C 222.94 102.04 223.61 108.73 223.29 115.59
  C 222.22 138.71 224.74 161.87 223.98 185.07
  C 223.91 187.32 224.06 189.92 224.45 192.88
  C 225.34 199.72 225.64 206.58 225.35 213.47
  C 225.07 219.99 224.96 224.69 225.03 227.56
  C 225.26 238.05 225.31 248.54 225.18 259.03
  C 225.12 263.63 225.41 268.36 225.09 272.92
  C 224.75 277.73 224.61 281.13 224.66 283.12
  C 224.80 288.87 224.93 294.63 225.05 300.39
  C 225.16 305.41 224.38 311.29 224.56 316.82
  C 224.68 320.78 223.78 324.72 223.95 328.51
  C 224.27 335.77 224.43 343.06 224.43 350.39
  C 224.43 350.72 224.59 350.92 224.92 350.98
  C 226.95 351.37 228.94 351.35 230.88 350.93
  C 232.57 350.56 234.37 349.53 236.28 347.82
  C 240.09 344.40 243.79 340.87 247.36 337.23
  C 247.61 336.98 247.86 336.97 248.13 337.19"
/>
<path stroke="#0f2b08" vector-effect="non-scaling-stroke" d="
  M 221.89 372.49
  C 223.14 373.82 224.47 376.38 226.78 377.92
  C 227.05 378.10 227.26 378.35 227.38 378.65
  C 227.92 379.93 228.73 380.99 229.81 381.83
  C 231.33 383.00 231.92 384.77 233.37 386.08
  C 235.32 387.85 237.12 389.76 238.76 391.83
  C 240.59 394.13 242.52 395.74 244.54 397.65
  C 244.83 397.92 245.10 397.92 245.37 397.63
  C 247.16 395.72 249.14 394.04 251.30 392.59
  C 255.26 389.91 257.81 386.24 261.62 383.34
  C 265.79 380.17 269.56 376.58 272.95 372.57
  C 273.15 372.33 273.39 372.15 273.68 372.03
  L 275.18 371.38
  C 275.68 371.16 275.74 370.86 275.37 370.47
  C 272.04 367.01 269.28 362.76 266.42 359.51
  C 263.00 355.62 259.63 351.68 256.30 347.71
  C 253.86 344.80 251.45 342.59 248.68 340.24
  C 248.33 339.94 247.81 339.95 247.48 340.27
  C 239.51 347.95 231.17 355.30 222.45 362.32
  C 220.97 363.51 219.75 365.44 218.14 366.54
  C 217.35 367.08 217.28 368.22 218.01 368.84
  C 219.45 370.06 220.74 371.28 221.89 372.49"
/>
<path stroke="#1e1710" vector-effect="non-scaling-stroke" d="
  M 191.82 352.12
  C 191.46 352.17 191.31 352.37 191.36 352.72
  C 192.27 358.51 192.33 364.38 191.54 370.31
  C 191.43 371.17 191.51 372.03 191.80 372.90
  C 192.79 375.87 192.19 379.38 192.78 382.63
  C 192.85 383.02 193.07 383.19 193.46 383.15
  C 197.03 382.80 200.59 382.83 204.13 383.23
  C 207.48 383.61 210.23 383.76 212.39 383.67
  C 217.42 383.46 222.45 383.33 227.49 383.28
  C 227.81 383.27 227.88 383.13 227.71 382.86
  C 226.46 380.93 225.04 379.15 223.44 377.53
  C 222.93 377.02 222.39 376.29 221.80 375.32
  C 220.68 373.51 218.70 372.35 217.56 370.80
  C 216.82 369.79 216.12 368.88 215.45 368.07
  C 214.60 367.05 214.90 365.50 216.07 364.87
  C 217.27 364.23 218.38 363.40 219.40 362.39
  C 222.64 359.19 226.05 356.25 229.63 353.56
  C 229.87 353.38 229.73 352.99 229.43 353.02
  C 225.30 353.35 221.41 352.15 217.55 352.34
  C 211.82 352.61 206.11 352.48 200.40 351.93
  C 197.30 351.63 194.71 351.78 191.82 352.12"
/>
<path stroke="#1e1710" vector-effect="non-scaling-stroke" d="
  M 277.15 371.97
  C 275.28 374.66 272.15 376.35 270.05 379.07
  C 269.22 380.14 268.36 381.14 267.46 382.09
  C 267.10 382.47 267.39 383.09 267.91 383.06
  C 272.23 382.83 276.58 382.66 280.97 382.55
  C 288.07 382.37 296.50 383.70 304.61 382.57
  C 305.04 382.51 305.35 382.15 305.36 381.72
  C 305.49 374.91 304.41 368.14 304.71 361.54
  C 304.84 358.73 304.94 355.95 305.02 353.22
  C 305.04 352.46 304.43 351.84 303.67 351.86
  L 263.77 352.87
  C 263.56 352.88 263.52 352.96 263.65 353.13
  C 265.27 355.24 266.97 357.29 268.75 359.27
  C 271.23 362.04 273.17 365.92 276.66 368.68
  C 277.85 369.62 278.01 370.72 277.15 371.97"
/>
<path stroke="#1f1f1f" vector-effect="non-scaling-stroke" d="
  M 238.39 396.99
  C 238.87 396.99 239.15 396.43 238.84 396.04
  L 234.77 390.95
  C 234.41 390.51 233.70 390.79 233.73 391.35
  L 234.07 396.40
  C 234.09 396.71 234.34 396.94 234.65 396.95
  L 238.39 396.99"
/>
<path stroke="#1f1f1f" vector-effect="non-scaling-stroke" d="
  M 251.45 395.02
  C 250.74 395.37 250.99 396.43 251.78 396.42
  L 257.48 396.37
  C 257.87 396.36 258.06 396.16 258.03 395.77
  L 257.76 391.31
  C 257.72 390.71 256.97 390.47 256.59 390.93
  C 255.16 392.68 253.45 394.04 251.45 395.02"
/>
<path stroke="#1f1f1f" vector-effect="non-scaling-stroke" d="
  M 245.02 400.75
  C 243.37 400.44 242.05 399.58 241.07 398.18
  C 240.90 397.94 240.67 397.82 240.38 397.82
  L 234.67 397.92
  C 234.32 397.93 234.06 398.22 234.09 398.57
  L 234.39 401.50
  C 234.43 401.90 234.85 402.15 235.23 402.00
  C 236.30 401.57 237.26 401.70 238.11 402.37
  C 238.42 402.62 238.78 402.74 239.18 402.73
  L 252.07 402.31
  C 252.42 402.30 252.76 402.20 253.07 402.03
  C 254.47 401.26 255.98 400.95 257.60 401.10
  C 258.06 401.14 258.26 400.93 258.21 400.48
  L 258.04 398.88
  C 257.99 398.49 257.77 398.30 257.38 398.31
  L 247.76 398.50
  C 247.43 398.51 247.18 398.64 246.99 398.90
  L 245.96 400.37
  C 245.73 400.70 245.41 400.83 245.02 400.75"
/>
<path stroke="#1f1f1f" vector-effect="non-scaling-stroke" d="
  M 251.58 404.21
  C 245.88 404.97 240.25 404.69 234.68 403.38
  C 234.31 403.29 234.12 403.44 234.13 403.83
  L 234.22 406.78
  C 234.23 407.13 234.38 407.40 234.68 407.59
  C 241.79 412.04 249.30 415.61 257.23 418.31
  C 257.94 418.56 258.68 418.01 258.66 417.25
  L 258.21 402.45
  C 258.20 402.02 258.01 401.92 257.66 402.16
  L 256.16 403.17
  C 256.00 403.28 255.80 403.31 255.62 403.27
  C 254.46 403.02 253.43 403.21 252.52 403.84
  C 252.24 404.04 251.93 404.16 251.58 404.21"
/>
<path stroke="#1f1f1f" vector-effect="non-scaling-stroke" d="
  M 258.14 420.12
  C 250.28 417.71 242.81 414.39 235.72 410.16
  C 235.55 410.05 235.36 409.99 235.15 409.97
  C 234.80 409.94 234.59 409.92 234.53 409.91
  C 233.20 409.71 232.35 411.28 233.24 412.29
  C 235.55 414.92 237.04 415.52 240.84 417.53
  C 246.13 420.34 251.71 422.45 257.57 423.87
  C 257.89 423.95 258.22 423.77 258.32 423.45
  L 258.92 421.61
  C 259.17 420.85 258.91 420.35 258.14 420.12"
/>
<path stroke="#1f1f1f" vector-effect="non-scaling-stroke" d="
  M 239.62 435.87
  C 249.39 431.68 255.61 429.01 258.28 427.84
  C 258.71 427.65 258.86 427.33 258.71 426.88
  L 258.22 425.44
  C 258.10 425.08 257.72 424.89 257.36 425.01
  C 256.77 425.20 255.93 425.16 254.84 424.87
  C 248.15 423.11 241.42 420.11 234.65 415.86
  C 234.18 415.57 233.58 415.91 233.60 416.46
  C 233.85 423.47 232.43 430.56 233.27 437.62
  C 233.32 438.01 233.53 438.15 233.91 438.03
  C 235.54 437.53 237.44 436.81 239.62 435.87"
/>
<path stroke="#1f1f1f" vector-effect="non-scaling-stroke" d="
  M 257.63 430.06
  L 233.79 439.98
  C 233.43 440.13 233.24 440.40 233.22 440.79
  L 233.04 444.16
  C 233.00 444.80 233.64 445.27 234.24 445.05
  C 242.00 442.18 249.33 438.75 256.24 434.76
  C 256.71 434.49 257.46 434.27 258.49 434.11
  C 258.98 434.04 259.20 433.75 259.17 433.26
  L 259.01 430.90
  C 258.96 430.23 258.26 429.80 257.63 430.06"
/>
<path stroke="#1f1f1f" vector-effect="non-scaling-stroke" d="
  M 235.14 452.36
  C 241.89 457.13 249.35 460.80 257.54 463.39
  C 259.21 463.92 260.02 463.30 259.97 461.55
  L 259.22 435.99
  C 259.21 435.60 258.78 435.36 258.44 435.55
  C 250.78 439.94 242.70 443.64 234.20 446.63
  C 232.54 447.22 231.85 447.98 232.24 449.79
  C 232.61 451.48 234.10 451.63 235.14 452.36"
/>
<path stroke="#1f1f1f" vector-effect="non-scaling-stroke" d="
  M 257.27 464.77
  C 248.53 462.40 243.07 459.45 233.53 453.42
  C 233.19 453.20 232.95 453.28 232.82 453.67
  C 231.93 456.18 232.37 457.99 234.60 459.65
  C 241.70 464.95 249.67 468.32 258.51 469.75
  C 258.94 469.82 259.15 469.63 259.15 469.20
  L 259.15 465.84
  C 259.15 465.54 259.01 465.34 258.73 465.24
  C 258.20 465.05 257.72 464.89 257.27 464.77"
/>
<path stroke="#1f1f1f" vector-effect="non-scaling-stroke" d="
  M 239.98 465.16
  C 238.58 464.44 236.47 462.84 234.49 462.00
  C 234.25 461.90 233.98 462.06 233.97 462.32
  C 233.68 467.60 235.24 471.61 238.67 474.36
  C 244.04 478.68 249.60 476.05 255.18 474.66
  C 256.89 474.23 257.93 473.40 258.30 472.16
  C 258.41 471.80 258.18 471.41 257.81 471.34
  C 251.54 470.09 245.60 468.03 239.98 465.16"
/>
<path stroke="#343534" vector-effect="non-scaling-stroke" d="
  M 249.76 232.28
  C 249.96 231.78 250.06 231.44 250.05 231.25
  C 249.54 213.76 249.04 196.28 248.54 178.79
  C 248.37 173.00 249.15 166.76 249.27 160.69
  C 249.28 159.75 249.16 157.96 248.89 155.33
  C 248.48 151.27 249.40 147.18 249.13 143.55
  C 248.33 132.96 247.79 122.36 247.51 111.74
  C 247.46 109.67 247.60 105.85 247.93 100.28
  C 248.40 92.42 247.48 85.87 248.62 76.80
  C 248.99 73.87 249.17 70.50 249.18 66.67
  C 249.19 62.97 249.40 59.19 249.82 55.33
  C 249.89 54.67 249.43 54.07 248.77 53.97
  C 248.12 53.87 247.50 54.31 247.37 54.96
  C 246.63 58.72 247.15 63.56 247.24 67.42
  C 247.33 71.93 246.50 76.20 245.99 80.65
  C 245.61 83.95 246.11 87.59 245.87 91.10
  C 244.79 107.51 245.75 124.44 246.75 140.85
  C 246.78 141.20 246.97 142.45 247.32 144.59
  C 247.81 147.57 246.78 150.61 246.89 153.14
  C 247.12 158.23 247.13 163.31 246.92 168.39
  C 246.65 174.92 246.57 179.99 246.69 183.61
  C 247.18 198.84 247.64 214.08 248.07 229.31
  C 248.13 231.58 247.01 233.99 247.21 236.00
  C 247.64 240.16 247.62 244.31 247.15 248.44
  C 246.86 250.91 246.79 253.29 246.94 255.56
  C 247.18 259.44 247.12 263.31 246.77 267.18
  C 246.55 269.59 246.46 272.14 246.51 274.85
  C 246.58 279.65 245.73 284.12 245.96 288.96
  C 246.06 291.11 246.02 293.26 245.84 295.40
  C 245.46 299.96 245.29 303.04 245.32 304.65
  C 245.43 310.60 245.61 316.55 245.84 322.50
  C 245.85 322.91 245.96 323.22 246.15 323.41
  C 246.48 323.73 246.88 323.74 247.35 323.43
  C 247.64 323.24 247.81 322.92 247.80 322.58
  C 247.53 315.27 247.33 308.00 247.20 300.77
  C 247.15 298.33 248.15 296.38 247.94 293.73
  C 247.61 289.56 247.70 285.40 248.21 281.25
  C 248.62 277.94 248.09 274.59 248.38 271.22
  C 248.75 266.81 248.94 264.31 248.95 263.74
  C 249.07 256.11 249.26 248.47 249.53 240.83
  C 249.60 238.81 250.60 235.81 249.73 233.09
  C 249.64 232.82 249.65 232.55 249.76 232.28"
/>
</g>
<path fill="#000100" d="
  M 273.80 130.39
  C 273.06 131.97 272.90 133.53 273.31 135.08
  L 273.47 137.77
  C 272.96 144.64 273.10 151.30 273.87 157.75
  L 273.98 167.75
  C 272.87 173.37 272.78 179.21 273.70 185.26
  C 273.95 195.81 274.25 206.38 274.59 216.97
  C 274.74 221.56 274.70 228.08 274.49 236.53
  C 274.28 244.68 274.45 252.84 274.99 261.00
  C 275.23 264.55 274.20 269.99 274.33 274.35
  C 274.70 286.09 274.97 297.83 275.14 309.57
  C 275.14 309.90 275.05 310.21 274.86 310.48
  C 274.62 310.83 274.50 311.08 274.51 311.25
  C 274.62 316.39 275.00 321.33 274.40 326.59
  C 274.17 328.66 274.03 330.73 273.98 332.82
  C 273.93 335.05 273.75 337.83 273.46 341.15
  C 273.23 343.80 273.19 346.60 273.34 349.54
  C 272.88 349.42 272.88 349.66 273.35 350.27
  C 273.56 350.54 273.83 350.69 274.17 350.72
  C 275.81 350.86 277.45 350.58 279.10 349.87
  L 306.00 348.91
  C 306.39 348.90 306.59 349.09 306.60 349.48
  L 307.50 383.75
  C 307.52 384.30 307.09 384.75 306.54 384.76
  L 286.70 385.17
  C 280.91 383.79 274.69 383.67 268.04 384.80
  C 265.29 384.61 263.12 385.58 261.53 387.70
  C 261.32 387.97 261.24 388.28 261.28 388.61
  C 261.48 390.43 260.72 391.48 260.78 393.15
  C 261.19 405.44 261.40 413.23 261.43 416.50
  C 261.46 419.09 260.76 421.99 260.88 424.84
  C 261.11 430.09 261.33 435.26 261.55 440.34
  C 260.76 442.55 261.01 444.85 262.29 447.26
  C 262.75 457.52 262.37 465.85 261.16 472.26
  C 260.05 478.15 246.74 478.88 242.33 478.60
  C 240.66 478.49 239.23 477.96 238.03 476.99
  C 232.64 472.64 231.39 467.68 230.94 460.39
  C 230.33 450.50 230.15 444.04 230.40 440.99
  C 230.95 434.32 231.13 427.69 230.93 421.12
  C 231.89 420.49 232.06 419.60 231.44 418.47
  L 231.84 389.13
  C 231.86 387.45 230.62 386.01 228.95 385.81
  C 226.42 385.50 223.50 385.28 220.71 385.38
  C 210.72 385.71 200.76 385.64 190.85 385.17
  C 190.29 385.14 189.85 384.70 189.82 384.14
  C 189.35 375.26 189.16 366.27 189.25 357.17
  C 189.27 355.49 188.30 352.88 189.35 350.64
  C 189.50 350.31 189.76 350.15 190.13 350.14
  L 208.40 349.86
  C 209.23 351.13 210.67 351.34 212.73 350.49
  L 221.53 350.37
  C 222.69 350.48 222.75 349.43 221.72 347.21
  L 221.92 322.36
  C 222.63 321.60 222.77 320.56 222.34 319.23
  C 222.89 306.35 223.02 293.47 222.72 280.58
  C 222.53 272.52 223.39 263.44 223.02 255.25
  C 222.42 241.60 223.10 226.86 222.73 215.25
  C 222.38 204.09 222.07 192.93 221.80 181.76
  C 221.52 170.62 221.99 156.25 221.49 143.50
  L 221.30 140.22
  L 220.83 109.87
  C 221.44 109.20 221.61 108.00 221.36 106.27
  C 220.81 101.85 220.13 97.81 220.43 93.23
  C 220.84 87.26 220.92 81.27 220.68 75.28
  C 220.66 74.78 220.93 74.16 221.18 73.75
  C 221.35 73.46 221.42 73.16 221.41 72.83
  C 221.32 71.10 221.54 68.58 222.07 65.26
  C 222.39 63.29 222.20 60.71 221.51 57.52
  C 221.44 57.19 221.48 56.87 221.64 56.57
  C 226.09 48.33 230.38 39.54 235.25 32.10
  C 239.37 25.79 243.71 19.75 248.28 13.97
  C 249.07 12.97 250.63 13.11 251.22 14.24
  C 256.19 23.70 261.01 33.05 266.84 42.39
  C 269.01 45.85 271.09 49.36 273.10 52.91
  C 273.83 54.20 274.18 55.22 274.15 55.98
  C 273.98 60.49 273.96 64.99 274.09 69.50
  C 274.10 69.82 273.97 70.13 273.70 70.43
  C 273.49 70.66 273.39 70.92 273.40 71.23
  L 273.80 130.39
  Z
  M 248.13 337.19
  C 252.07 340.49 255.62 344.16 258.77 348.19
  C 261.12 351.21 266.59 350.78 270.22 350.72
  C 270.58 350.71 270.75 350.53 270.74 350.16
  C 270.67 348.37 270.76 346.60 271.02 344.86
  C 271.58 341.01 270.98 337.46 271.47 333.66
  C 271.77 331.33 271.92 329.36 271.93 327.77
  C 271.93 323.13 272.67 318.52 272.55 314.07
  C 272.38 307.88 272.43 301.69 272.71 295.50
  C 272.78 293.83 272.48 290.75 271.80 286.26
  C 271.39 283.52 271.40 279.88 271.84 275.33
  C 272.49 268.55 271.82 262.09 272.21 255.37
  C 272.70 246.88 272.27 239.38 272.34 231.30
  C 272.35 230.31 272.20 228.13 271.90 224.74
  C 271.54 220.78 272.73 217.16 272.15 213.36
  C 271.32 207.96 271.22 202.55 271.84 197.12
  C 272.24 193.65 271.82 191.97 271.01 188.76
  C 270.00 184.80 271.49 179.27 271.44 175.40
  C 271.41 173.43 271.39 171.45 271.38 169.47
  C 271.37 163.50 270.81 157.66 271.09 151.66
  C 271.56 141.45 270.81 132.58 271.55 123.10
  C 271.72 121.01 271.47 118.56 270.81 115.75
  C 270.26 113.40 270.18 110.44 270.56 106.87
  C 270.99 102.90 271.18 99.97 271.15 98.08
  C 271.11 95.34 271.05 92.60 270.96 89.87
  C 270.90 87.70 271.02 84.96 271.32 81.66
  C 271.82 76.25 271.22 71.21 271.89 65.62
  C 272.26 62.57 272.27 59.49 271.93 56.38
  C 271.76 54.86 271.20 53.37 270.23 51.90
  C 262.92 40.79 256.30 29.21 250.37 17.18
  C 250.12 16.68 249.44 16.60 249.09 17.04
  C 239.49 29.15 231.27 42.24 224.44 56.32
  C 223.27 58.72 224.28 64.41 223.91 67.46
  C 223.58 70.08 223.44 72.37 223.48 74.32
  C 223.57 79.03 222.85 83.80 222.94 88.24
  C 222.99 90.57 223.00 92.91 222.99 95.24
  C 222.94 102.04 223.61 108.73 223.29 115.59
  C 222.22 138.71 224.74 161.87 223.98 185.07
  C 223.91 187.32 224.06 189.92 224.45 192.88
  C 225.34 199.72 225.64 206.58 225.35 213.47
  C 225.07 219.99 224.96 224.69 225.03 227.56
  C 225.26 238.05 225.31 248.54 225.18 259.03
  C 225.12 263.63 225.41 268.36 225.09 272.92
  C 224.75 277.73 224.61 281.13 224.66 283.12
  C 224.80 288.87 224.93 294.63 225.05 300.39
  C 225.16 305.41 224.38 311.29 224.56 316.82
  C 224.68 320.78 223.78 324.72 223.95 328.51
  C 224.27 335.77 224.43 343.06 224.43 350.39
  C 224.43 350.72 224.59 350.92 224.92 350.98
  C 226.95 351.37 228.94 351.35 230.88 350.93
  C 232.57 350.56 234.37 349.53 236.28 347.82
  C 240.09 344.40 243.79 340.87 247.36 337.23
  C 247.61 336.98 247.86 336.97 248.13 337.19
  Z
  M 221.89 372.49
  C 223.14 373.82 224.47 376.38 226.78 377.92
  C 227.05 378.10 227.26 378.35 227.38 378.65
  C 227.92 379.93 228.73 380.99 229.81 381.83
  C 231.33 383.00 231.92 384.77 233.37 386.08
  C 235.32 387.85 237.12 389.76 238.76 391.83
  C 240.59 394.13 242.52 395.74 244.54 397.65
  C 244.83 397.92 245.10 397.92 245.37 397.63
  C 247.16 395.72 249.14 394.04 251.30 392.59
  C 255.26 389.91 257.81 386.24 261.62 383.34
  C 265.79 380.17 269.56 376.58 272.95 372.57
  C 273.15 372.33 273.39 372.15 273.68 372.03
  L 275.18 371.38
  C 275.68 371.16 275.74 370.86 275.37 370.47
  C 272.04 367.01 269.28 362.76 266.42 359.51
  C 263.00 355.62 259.63 351.68 256.30 347.71
  C 253.86 344.80 251.45 342.59 248.68 340.24
  C 248.33 339.94 247.81 339.95 247.48 340.27
  C 239.51 347.95 231.17 355.30 222.45 362.32
  C 220.97 363.51 219.75 365.44 218.14 366.54
  C 217.35 367.08 217.28 368.22 218.01 368.84
  C 219.45 370.06 220.74 371.28 221.89 372.49
  Z
  M 191.82 352.12
  C 191.46 352.17 191.31 352.37 191.36 352.72
  C 192.27 358.51 192.33 364.38 191.54 370.31
  C 191.43 371.17 191.51 372.03 191.80 372.90
  C 192.79 375.87 192.19 379.38 192.78 382.63
  C 192.85 383.02 193.07 383.19 193.46 383.15
  C 197.03 382.80 200.59 382.83 204.13 383.23
  C 207.48 383.61 210.23 383.76 212.39 383.67
  C 217.42 383.46 222.45 383.33 227.49 383.28
  C 227.81 383.27 227.88 383.13 227.71 382.86
  C 226.46 380.93 225.04 379.15 223.44 377.53
  C 222.93 377.02 222.39 376.29 221.80 375.32
  C 220.68 373.51 218.70 372.35 217.56 370.80
  C 216.82 369.79 216.12 368.88 215.45 368.07
  C 214.60 367.05 214.90 365.50 216.07 364.87
  C 217.27 364.23 218.38 363.40 219.40 362.39
  C 222.64 359.19 226.05 356.25 229.63 353.56
  C 229.87 353.38 229.73 352.99 229.43 353.02
  C 225.30 353.35 221.41 352.15 217.55 352.34
  C 211.82 352.61 206.11 352.48 200.40 351.93
  C 197.30 351.63 194.71 351.78 191.82 352.12
  Z
  M 277.15 371.97
  C 275.28 374.66 272.15 376.35 270.05 379.07
  C 269.22 380.14 268.36 381.14 267.46 382.09
  C 267.10 382.47 267.39 383.09 267.91 383.06
  C 272.23 382.83 276.58 382.66 280.97 382.55
  C 288.07 382.37 296.50 383.70 304.61 382.57
  C 305.04 382.51 305.35 382.15 305.36 381.72
  C 305.49 374.91 304.41 368.14 304.71 361.54
  C 304.84 358.73 304.94 355.95 305.02 353.22
  C 305.04 352.46 304.43 351.84 303.67 351.86
  L 263.77 352.87
  C 263.56 352.88 263.52 352.96 263.65 353.13
  C 265.27 355.24 266.97 357.29 268.75 359.27
  C 271.23 362.04 273.17 365.92 276.66 368.68
  C 277.85 369.62 278.01 370.72 277.15 371.97
  Z
  M 238.39 396.99
  C 238.87 396.99 239.15 396.43 238.84 396.04
  L 234.77 390.95
  C 234.41 390.51 233.70 390.79 233.73 391.35
  L 234.07 396.40
  C 234.09 396.71 234.34 396.94 234.65 396.95
  L 238.39 396.99
  Z
  M 251.45 395.02
  C 250.74 395.37 250.99 396.43 251.78 396.42
  L 257.48 396.37
  C 257.87 396.36 258.06 396.16 258.03 395.77
  L 257.76 391.31
  C 257.72 390.71 256.97 390.47 256.59 390.93
  C 255.16 392.68 253.45 394.04 251.45 395.02
  Z
  M 245.02 400.75
  C 243.37 400.44 242.05 399.58 241.07 398.18
  C 240.90 397.94 240.67 397.82 240.38 397.82
  L 234.67 397.92
  C 234.32 397.93 234.06 398.22 234.09 398.57
  L 234.39 401.50
  C 234.43 401.90 234.85 402.15 235.23 402.00
  C 236.30 401.57 237.26 401.70 238.11 402.37
  C 238.42 402.62 238.78 402.74 239.18 402.73
  L 252.07 402.31
  C 252.42 402.30 252.76 402.20 253.07 402.03
  C 254.47 401.26 255.98 400.95 257.60 401.10
  C 258.06 401.14 258.26 400.93 258.21 400.48
  L 258.04 398.88
  C 257.99 398.49 257.77 398.30 257.38 398.31
  L 247.76 398.50
  C 247.43 398.51 247.18 398.64 246.99 398.90
  L 245.96 400.37
  C 245.73 400.70 245.41 400.83 245.02 400.75
  Z
  M 251.58 404.21
  C 245.88 404.97 240.25 404.69 234.68 403.38
  C 234.31 403.29 234.12 403.44 234.13 403.83
  L 234.22 406.78
  C 234.23 407.13 234.38 407.40 234.68 407.59
  C 241.79 412.04 249.30 415.61 257.23 418.31
  C 257.94 418.56 258.68 418.01 258.66 417.25
  L 258.21 402.45
  C 258.20 402.02 258.01 401.92 257.66 402.16
  L 256.16 403.17
  C 256.00 403.28 255.80 403.31 255.62 403.27
  C 254.46 403.02 253.43 403.21 252.52 403.84
  C 252.24 404.04 251.93 404.16 251.58 404.21
  Z
  M 258.14 420.12
  C 250.28 417.71 242.81 414.39 235.72 410.16
  C 235.55 410.05 235.36 409.99 235.15 409.97
  C 234.80 409.94 234.59 409.92 234.53 409.91
  C 233.20 409.71 232.35 411.28 233.24 412.29
  C 235.55 414.92 237.04 415.52 240.84 417.53
  C 246.13 420.34 251.71 422.45 257.57 423.87
  C 257.89 423.95 258.22 423.77 258.32 423.45
  L 258.92 421.61
  C 259.17 420.85 258.91 420.35 258.14 420.12
  Z
  M 239.62 435.87
  C 249.39 431.68 255.61 429.01 258.28 427.84
  C 258.71 427.65 258.86 427.33 258.71 426.88
  L 258.22 425.44
  C 258.10 425.08 257.72 424.89 257.36 425.01
  C 256.77 425.20 255.93 425.16 254.84 424.87
  C 248.15 423.11 241.42 420.11 234.65 415.86
  C 234.18 415.57 233.58 415.91 233.60 416.46
  C 233.85 423.47 232.43 430.56 233.27 437.62
  C 233.32 438.01 233.53 438.15 233.91 438.03
  C 235.54 437.53 237.44 436.81 239.62 435.87
  Z
  M 257.63 430.06
  L 233.79 439.98
  C 233.43 440.13 233.24 440.40 233.22 440.79
  L 233.04 444.16
  C 233.00 444.80 233.64 445.27 234.24 445.05
  C 242.00 442.18 249.33 438.75 256.24 434.76
  C 256.71 434.49 257.46 434.27 258.49 434.11
  C 258.98 434.04 259.20 433.75 259.17 433.26
  L 259.01 430.90
  C 258.96 430.23 258.26 429.80 257.63 430.06
  Z
  M 235.14 452.36
  C 241.89 457.13 249.35 460.80 257.54 463.39
  C 259.21 463.92 260.02 463.30 259.97 461.55
  L 259.22 435.99
  C 259.21 435.60 258.78 435.36 258.44 435.55
  C 250.78 439.94 242.70 443.64 234.20 446.63
  C 232.54 447.22 231.85 447.98 232.24 449.79
  C 232.61 451.48 234.10 451.63 235.14 452.36
  Z
  M 257.27 464.77
  C 248.53 462.40 243.07 459.45 233.53 453.42
  C 233.19 453.20 232.95 453.28 232.82 453.67
  C 231.93 456.18 232.37 457.99 234.60 459.65
  C 241.70 464.95 249.67 468.32 258.51 469.75
  C 258.94 469.82 259.15 469.63 259.15 469.20
  L 259.15 465.84
  C 259.15 465.54 259.01 465.34 258.73 465.24
  C 258.20 465.05 257.72 464.89 257.27 464.77
  Z
  M 239.98 465.16
  C 238.58 464.44 236.47 462.84 234.49 462.00
  C 234.25 461.90 233.98 462.06 233.97 462.32
  C 233.68 467.60 235.24 471.61 238.67 474.36
  C 244.04 478.68 249.60 476.05 255.18 474.66
  C 256.89 474.23 257.93 473.40 258.30 472.16
  C 258.41 471.80 258.18 471.41 257.81 471.34
  C 251.54 470.09 245.60 468.03 239.98 465.16
  Z"
/>
<path fill="#686868" d="
  M 247.36 337.23
  C 243.79 340.87 240.09 344.40 236.28 347.82
  C 234.37 349.53 232.57 350.56 230.88 350.93
  C 228.94 351.35 226.95 351.37 224.92 350.98
  C 224.59 350.92 224.43 350.72 224.43 350.39
  C 224.43 343.06 224.27 335.77 223.95 328.51
  C 223.78 324.72 224.68 320.78 224.56 316.82
  C 224.38 311.29 225.16 305.41 225.05 300.39
  C 224.93 294.63 224.80 288.87 224.66 283.12
  C 224.61 281.13 224.75 277.73 225.09 272.92
  C 225.41 268.36 225.12 263.63 225.18 259.03
  C 225.31 248.54 225.26 238.05 225.03 227.56
  C 224.96 224.69 225.07 219.99 225.35 213.47
  C 225.64 206.58 225.34 199.72 224.45 192.88
  C 224.06 189.92 223.91 187.32 223.98 185.07
  C 224.74 161.87 222.22 138.71 223.29 115.59
  C 223.61 108.73 222.94 102.04 222.99 95.24
  C 223.00 92.91 222.99 90.57 222.94 88.24
  C 222.85 83.80 223.57 79.03 223.48 74.32
  C 223.44 72.37 223.58 70.08 223.91 67.46
  C 224.28 64.41 223.27 58.72 224.44 56.32
  C 231.27 42.24 239.49 29.15 249.09 17.04
  C 249.44 16.60 250.12 16.68 250.37 17.18
  C 256.30 29.21 262.92 40.79 270.23 51.90
  C 271.20 53.37 271.76 54.86 271.93 56.38
  C 272.27 59.49 272.26 62.57 271.89 65.62
  C 271.22 71.21 271.82 76.25 271.32 81.66
  C 271.02 84.96 270.90 87.70 270.96 89.87
  C 271.05 92.60 271.11 95.34 271.15 98.08
  C 271.18 99.97 270.99 102.90 270.56 106.87
  C 270.18 110.44 270.26 113.40 270.81 115.75
  C 271.47 118.56 271.72 121.01 271.55 123.10
  C 270.81 132.58 271.56 141.45 271.09 151.66
  C 270.81 157.66 271.37 163.50 271.38 169.47
  C 271.39 171.45 271.41 173.43 271.44 175.40
  C 271.49 179.27 270.00 184.80 271.01 188.76
  C 271.82 191.97 272.24 193.65 271.84 197.12
  C 271.22 202.55 271.32 207.96 272.15 213.36
  C 272.73 217.16 271.54 220.78 271.90 224.74
  C 272.20 228.13 272.35 230.31 272.34 231.30
  C 272.27 239.38 272.70 246.88 272.21 255.37
  C 271.82 262.09 272.49 268.55 271.84 275.33
  C 271.40 279.88 271.39 283.52 271.80 286.26
  C 272.48 290.75 272.78 293.83 272.71 295.50
  C 272.43 301.69 272.38 307.88 272.55 314.07
  C 272.67 318.52 271.93 323.13 271.93 327.77
  C 271.92 329.36 271.77 331.33 271.47 333.66
  C 270.98 337.46 271.58 341.01 271.02 344.86
  C 270.76 346.60 270.67 348.37 270.74 350.16
  C 270.75 350.53 270.58 350.71 270.22 350.72
  C 266.59 350.78 261.12 351.21 258.77 348.19
  C 255.62 344.16 252.07 340.49 248.13 337.19
  C 247.86 336.97 247.61 336.98 247.36 337.23
  Z
  M 249.76 232.28
  C 249.96 231.78 250.06 231.44 250.05 231.25
  C 249.54 213.76 249.04 196.28 248.54 178.79
  C 248.37 173.00 249.15 166.76 249.27 160.69
  C 249.28 159.75 249.16 157.96 248.89 155.33
  C 248.48 151.27 249.40 147.18 249.13 143.55
  C 248.33 132.96 247.79 122.36 247.51 111.74
  C 247.46 109.67 247.60 105.85 247.93 100.28
  C 248.40 92.42 247.48 85.87 248.62 76.80
  C 248.99 73.87 249.17 70.50 249.18 66.67
  C 249.19 62.97 249.40 59.19 249.82 55.33
  C 249.89 54.67 249.43 54.07 248.77 53.97
  C 248.12 53.87 247.50 54.31 247.37 54.96
  C 246.63 58.72 247.15 63.56 247.24 67.42
  C 247.33 71.93 246.50 76.20 245.99 80.65
  C 245.61 83.95 246.11 87.59 245.87 91.10
  C 244.79 107.51 245.75 124.44 246.75 140.85
  C 246.78 141.20 246.97 142.45 247.32 144.59
  C 247.81 147.57 246.78 150.61 246.89 153.14
  C 247.12 158.23 247.13 163.31 246.92 168.39
  C 246.65 174.92 246.57 179.99 246.69 183.61
  C 247.18 198.84 247.64 214.08 248.07 229.31
  C 248.13 231.58 247.01 233.99 247.21 236.00
  C 247.64 240.16 247.62 244.31 247.15 248.44
  C 246.86 250.91 246.79 253.29 246.94 255.56
  C 247.18 259.44 247.12 263.31 246.77 267.18
  C 246.55 269.59 246.46 272.14 246.51 274.85
  C 246.58 279.65 245.73 284.12 245.96 288.96
  C 246.06 291.11 246.02 293.26 245.84 295.40
  C 245.46 299.96 245.29 303.04 245.32 304.65
  C 245.43 310.60 245.61 316.55 245.84 322.50
  C 245.85 322.91 245.96 323.22 246.15 323.41
  C 246.48 323.73 246.88 323.74 247.35 323.43
  C 247.64 323.24 247.81 322.92 247.80 322.58
  C 247.53 315.27 247.33 308.00 247.20 300.77
  C 247.15 298.33 248.15 296.38 247.94 293.73
  C 247.61 289.56 247.70 285.40 248.21 281.25
  C 248.62 277.94 248.09 274.59 248.38 271.22
  C 248.75 266.81 248.94 264.31 248.95 263.74
  C 249.07 256.11 249.26 248.47 249.53 240.83
  C 249.60 238.81 250.60 235.81 249.73 233.09
  C 249.64 232.82 249.65 232.55 249.76 232.28
  Z"
/>
<path fill="#000100" d="
  M 249.73 233.09
  C 250.60 235.81 249.60 238.81 249.53 240.83
  C 249.26 248.47 249.07 256.11 248.95 263.74
  C 248.94 264.31 248.75 266.81 248.38 271.22
  C 248.09 274.59 248.62 277.94 248.21 281.25
  C 247.70 285.40 247.61 289.56 247.94 293.73
  C 248.15 296.38 247.15 298.33 247.20 300.77
  C 247.33 308.00 247.53 315.27 247.80 322.58
  C 247.81 322.92 247.64 323.24 247.35 323.43
  C 246.88 323.74 246.48 323.73 246.15 323.41
  C 245.96 323.22 245.85 322.91 245.84 322.50
  C 245.61 316.55 245.43 310.60 245.32 304.65
  C 245.29 303.04 245.46 299.96 245.84 295.40
  C 246.02 293.26 246.06 291.11 245.96 288.96
  C 245.73 284.12 246.58 279.65 246.51 274.85
  C 246.46 272.14 246.55 269.59 246.77 267.18
  C 247.12 263.31 247.18 259.44 246.94 255.56
  C 246.79 253.29 246.86 250.91 247.15 248.44
  C 247.62 244.31 247.64 240.16 247.21 236.00
  C 247.01 233.99 248.13 231.58 248.07 229.31
  C 247.64 214.08 247.18 198.84 246.69 183.61
  C 246.57 179.99 246.65 174.92 246.92 168.39
  C 247.13 163.31 247.12 158.23 246.89 153.14
  C 246.78 150.61 247.81 147.57 247.32 144.59
  C 246.97 142.45 246.78 141.20 246.75 140.85
  C 245.75 124.44 244.79 107.51 245.87 91.10
  C 246.11 87.59 245.61 83.95 245.99 80.65
  C 246.50 76.20 247.33 71.93 247.24 67.42
  C 247.15 63.56 246.63 58.72 247.37 54.96
  C 247.50 54.31 248.12 53.87 248.77 53.97
  C 249.43 54.07 249.89 54.67 249.82 55.33
  C 249.40 59.19 249.19 62.97 249.18 66.67
  C 249.17 70.50 248.99 73.87 248.62 76.80
  C 247.48 85.87 248.40 92.42 247.93 100.28
  C 247.60 105.85 247.46 109.67 247.51 111.74
  C 247.79 122.36 248.33 132.96 249.13 143.55
  C 249.40 147.18 248.48 151.27 248.89 155.33
  C 249.16 157.96 249.28 159.75 249.27 160.69
  C 249.15 166.76 248.37 173.00 248.54 178.79
  C 249.04 196.28 249.54 213.76 250.05 231.25
  C 250.06 231.44 249.96 231.78 249.76 232.28
  C 249.65 232.55 249.64 232.82 249.73 233.09
  Z"
/>
<path fill="#3d3d3d" d="
  M 221.36 106.27
  C 221.61 108.00 221.44 109.20 220.83 109.87
  C 220.70 108.63 220.87 107.43 221.36 106.27
  Z"
/>
<path fill="#3d3d3d" d="
  M 273.80 130.39
  L 273.31 135.08
  C 272.90 133.53 273.06 131.97 273.80 130.39
  Z"
/>
<path fill="#686868" d="
  M 273.47 137.77
  L 273.87 157.75
  C 273.10 151.30 272.96 144.64 273.47 137.77
  Z"
/>
<path fill="#686868" d="
  M 221.30 140.22
  L 221.49 143.50
  C 220.83 142.85 220.77 141.75 221.30 140.22
  Z"
/>
<path fill="#3d3d3d" d="
  M 273.98 167.75
  L 273.70 185.26
  C 272.78 179.21 272.87 173.37 273.98 167.75
  Z"
/>
<path fill="#686868" d="
  M 222.34 319.23
  C 222.77 320.56 222.63 321.60 221.92 322.36
  L 222.34 319.23
  Z"
/>
<path fill="#1d550f" d="
  M 221.89 372.49
  C 220.74 371.28 219.45 370.06 218.01 368.84
  C 217.28 368.22 217.35 367.08 218.14 366.54
  C 219.75 365.44 220.97 363.51 222.45 362.32
  C 231.17 355.30 239.51 347.95 247.48 340.27
  C 247.81 339.95 248.33 339.94 248.68 340.24
  C 251.45 342.59 253.86 344.80 256.30 347.71
  C 259.63 351.68 263.00 355.62 266.42 359.51
  C 269.28 362.76 272.04 367.01 275.37 370.47
  C 275.74 370.86 275.68 371.16 275.18 371.38
  L 273.68 372.03
  C 273.39 372.15 273.15 372.33 272.95 372.57
  C 269.56 376.58 265.79 380.17 261.62 383.34
  C 257.81 386.24 255.26 389.91 251.30 392.59
  C 249.14 394.04 247.16 395.72 245.37 397.63
  C 245.10 397.92 244.83 397.92 244.54 397.65
  C 242.52 395.74 240.59 394.13 238.76 391.83
  C 237.12 389.76 235.32 387.85 233.37 386.08
  C 231.92 384.77 231.33 383.00 229.81 381.83
  C 228.73 380.99 227.92 379.93 227.38 378.65
  C 227.26 378.35 227.05 378.10 226.78 377.92
  C 224.47 376.38 223.14 373.82 221.89 372.49
  Z"
/>
<path fill="#3d3d3d" d="
  M 221.72 347.21
  C 222.75 349.43 222.69 350.48 221.53 350.37
  C 221.88 349.44 221.94 348.38 221.72 347.21
  Z"
/>
<path fill="#3d3d3d" d="
  M 273.34 349.54
  L 279.10 349.87
  C 277.45 350.58 275.81 350.86 274.17 350.72
  C 273.83 350.69 273.56 350.54 273.35 350.27
  C 272.88 349.66 272.88 349.42 273.34 349.54
  Z"
/>
<path fill="#3d3d3d" d="
  M 208.40 349.86
  C 210.11 349.72 211.56 349.93 212.73 350.49
  C 210.67 351.34 209.23 351.13 208.40 349.86
  Z"
/>
<path fill="#3c2d1f" d="
  M 191.82 352.12
  C 194.71 351.78 197.30 351.63 200.40 351.93
  C 206.11 352.48 211.82 352.61 217.55 352.34
  C 221.41 352.15 225.30 353.35 229.43 353.02
  C 229.73 352.99 229.87 353.38 229.63 353.56
  C 226.05 356.25 222.64 359.19 219.40 362.39
  C 218.38 363.40 217.27 364.23 216.07 364.87
  C 214.90 365.50 214.60 367.05 215.45 368.07
  C 216.12 368.88 216.82 369.79 217.56 370.80
  C 218.70 372.35 220.68 373.51 221.80 375.32
  C 222.39 376.29 222.93 377.02 223.44 377.53
  C 225.04 379.15 226.46 380.93 227.71 382.86
  C 227.88 383.13 227.81 383.27 227.49 383.28
  C 222.45 383.33 217.42 383.46 212.39 383.67
  C 210.23 383.76 207.48 383.61 204.13 383.23
  C 200.59 382.83 197.03 382.80 193.46 383.15
  C 193.07 383.19 192.85 383.02 192.78 382.63
  C 192.19 379.38 192.79 375.87 191.80 372.90
  C 191.51 372.03 191.43 371.17 191.54 370.31
  C 192.33 364.38 192.27 358.51 191.36 352.72
  C 191.31 352.37 191.46 352.17 191.82 352.12
  Z"
/>
<path fill="#3c2d1f" d="
  M 277.15 371.97
  C 278.01 370.72 277.85 369.62 276.66 368.68
  C 273.17 365.92 271.23 362.04 268.75 359.27
  C 266.97 357.29 265.27 355.24 263.65 353.13
  C 263.52 352.96 263.56 352.88 263.77 352.87
  L 303.67 351.86
  C 304.43 351.84 305.04 352.46 305.02 353.22
  C 304.94 355.95 304.84 358.73 304.71 361.54
  C 304.41 368.14 305.49 374.91 305.36 381.72
  C 305.35 382.15 305.04 382.51 304.61 382.57
  C 296.50 383.70 288.07 382.37 280.97 382.55
  C 276.58 382.66 272.23 382.83 267.91 383.06
  C 267.39 383.09 267.10 382.47 267.46 382.09
  C 268.36 381.14 269.22 380.14 270.05 379.07
  C 272.15 376.35 275.28 374.66 277.15 371.97
  Z"
/>
<path fill="#3d3d3d" d="
  M 286.70 385.17
  L 268.04 384.80
  C 274.69 383.67 280.91 383.79 286.70 385.17
  Z"
/>
<path fill="#3d3d3d" d="
  M 238.39 396.99
  L 234.65 396.95
  C 234.34 396.94 234.09 396.71 234.07 396.40
  L 233.73 391.35
  C 233.70 390.79 234.41 390.51 234.77 390.95
  L 238.84 396.04
  C 239.15 396.43 238.87 396.99 238.39 396.99
  Z"
/>
<path fill="#3d3d3d" d="
  M 251.45 395.02
  C 253.45 394.04 255.16 392.68 256.59 390.93
  C 256.97 390.47 257.72 390.71 257.76 391.31
  L 258.03 395.77
  C 258.06 396.16 257.87 396.36 257.48 396.37
  L 251.78 396.42
  C 250.99 396.43 250.74 395.37 251.45 395.02
  Z"
/>
<path fill="#3d3d3d" d="
  M 245.96 400.37
  L 246.99 398.90
  C 247.18 398.64 247.43 398.51 247.76 398.50
  L 257.38 398.31
  C 257.77 398.30 257.99 398.49 258.04 398.88
  L 258.21 400.48
  C 258.26 400.93 258.06 401.14 257.60 401.10
  C 255.98 400.95 254.47 401.26 253.07 402.03
  C 252.76 402.20 252.42 402.30 252.07 402.31
  L 239.18 402.73
  C 238.78 402.74 238.42 402.62 238.11 402.37
  C 237.26 401.70 236.30 401.57 235.23 402.00
  C 234.85 402.15 234.43 401.90 234.39 401.50
  L 234.09 398.57
  C 234.06 398.22 234.32 397.93 234.67 397.92
  L 240.38 397.82
  C 240.67 397.82 240.90 397.94 241.07 398.18
  C 242.05 399.58 243.37 400.44 245.02 400.75
  C 245.41 400.83 245.73 400.70 245.96 400.37
  Z"
/>
<path fill="#3d3d3d" d="
  M 252.52 403.84
  C 253.43 403.21 254.46 403.02 255.62 403.27
  C 255.80 403.31 256.00 403.28 256.16 403.17
  L 257.66 402.16
  C 258.01 401.92 258.20 402.02 258.21 402.45
  L 258.66 417.25
  C 258.68 418.01 257.94 418.56 257.23 418.31
  C 249.30 415.61 241.79 412.04 234.68 407.59
  C 234.38 407.40 234.23 407.13 234.22 406.78
  L 234.13 403.83
  C 234.12 403.44 234.31 403.29 234.68 403.38
  C 240.25 404.69 245.88 404.97 251.58 404.21
  C 251.93 404.16 252.24 404.04 252.52 403.84
  Z"
/>
<path fill="#3d3d3d" d="
  M 258.14 420.12
  C 258.91 420.35 259.17 420.85 258.92 421.61
  L 258.32 423.45
  C 258.22 423.77 257.89 423.95 257.57 423.87
  C 251.71 422.45 246.13 420.34 240.84 417.53
  C 237.04 415.52 235.55 414.92 233.24 412.29
  C 232.35 411.28 233.20 409.71 234.53 409.91
  C 234.59 409.92 234.80 409.94 235.15 409.97
  C 235.36 409.99 235.55 410.05 235.72 410.16
  C 242.81 414.39 250.28 417.71 258.14 420.12
  Z"
/>
<path fill="#3d3d3d" d="
  M 239.62 435.87
  C 237.44 436.81 235.54 437.53 233.91 438.03
  C 233.53 438.15 233.32 438.01 233.27 437.62
  C 232.43 430.56 233.85 423.47 233.60 416.46
  C 233.58 415.91 234.18 415.57 234.65 415.86
  C 241.42 420.11 248.15 423.11 254.84 424.87
  C 255.93 425.16 256.77 425.20 257.36 425.01
  C 257.72 424.89 258.10 425.08 258.22 425.44
  L 258.71 426.88
  C 258.86 427.33 258.71 427.65 258.28 427.84
  C 255.61 429.01 249.39 431.68 239.62 435.87
  Z"
/>
<path fill="#3d3d3d" d="
  M 231.44 418.47
  C 232.06 419.60 231.89 420.49 230.93 421.12
  C 230.80 419.91 230.97 419.02 231.44 418.47
  Z"
/>
<path fill="#3d3d3d" d="
  M 233.79 439.98
  L 257.63 430.06
  C 258.26 429.80 258.96 430.23 259.01 430.90
  L 259.17 433.26
  C 259.20 433.75 258.98 434.04 258.49 434.11
  C 257.46 434.27 256.71 434.49 256.24 434.76
  C 249.33 438.75 242.00 442.18 234.24 445.05
  C 233.64 445.27 233.00 444.80 233.04 444.16
  L 233.22 440.79
  C 233.24 440.40 233.43 440.13 233.79 439.98
  Z"
/>
<path fill="#3d3d3d" d="
  M 235.14 452.36
  C 234.10 451.63 232.61 451.48 232.24 449.79
  C 231.85 447.98 232.54 447.22 234.20 446.63
  C 242.70 443.64 250.78 439.94 258.44 435.55
  C 258.78 435.36 259.21 435.60 259.22 435.99
  L 259.97 461.55
  C 260.02 463.30 259.21 463.92 257.54 463.39
  C 249.35 460.80 241.89 457.13 235.14 452.36
  Z"
/>
<path fill="#3d3d3d" d="
  M 261.55 440.34
  L 262.29 447.26
  C 261.01 444.85 260.76 442.55 261.55 440.34
  Z"
/>
<path fill="#3d3d3d" d="
  M 257.27 464.77
  C 257.72 464.89 258.20 465.05 258.73 465.24
  C 259.01 465.34 259.15 465.54 259.15 465.84
  L 259.15 469.20
  C 259.15 469.63 258.94 469.82 258.51 469.75
  C 249.67 468.32 241.70 464.95 234.60 459.65
  C 232.37 457.99 231.93 456.18 232.82 453.67
  C 232.95 453.28 233.19 453.20 233.53 453.42
  C 243.07 459.45 248.53 462.40 257.27 464.77
  Z"
/>
<path fill="#3d3d3d" d="
  M 239.98 465.16
  C 245.60 468.03 251.54 470.09 257.81 471.34
  C 258.18 471.41 258.41 471.80 258.30 472.16
  C 257.93 473.40 256.89 474.23 255.18 474.66
  C 249.60 476.05 244.04 478.68 238.67 474.36
  C 235.24 471.61 233.68 467.60 233.97 462.32
  C 233.98 462.06 234.25 461.90 234.49 462.00
  C 236.47 462.84 238.58 464.44 239.98 465.16
  Z"
/>
</svg>
